<svg width="152" height="40" viewBox="0 0 152 40" fill="none" xmlns="http://www.w3.org/2000/svg">
<path d="M11.3 20.1357C11.2286 18.2439 11.5388 16.5413 12.185 14.9064C13.4284 11.7596 15.1944 10.6242 18.5902 10.7477C23.2742 10.918 28.0507 15.0452 28.7374 19.5153C29.0454 21.5204 27.8901 23.9417 26.1484 24.9423C24.1297 26.1018 21.8195 25.9973 20.184 24.6873C18.9625 23.7094 18.4492 22.5244 18.9274 20.9575C19.1582 20.2008 19.5217 19.4773 19.5259 18.6504C19.5291 18.0609 19.3424 17.5869 18.7778 17.4334C18.2902 17.3005 17.8602 17.5824 17.5721 17.9844C17.4132 18.2059 17.2891 18.4773 17.233 18.7436C16.6928 21.3116 17.1313 23.7023 19.1211 25.4686C21.1297 27.2511 23.5733 27.395 26.0014 26.3539C28.4593 25.3001 29.8032 23.3556 29.9853 20.6711C30.1972 17.5484 28.695 15.1022 26.6272 13.0262C23.2832 9.66893 19.0367 8.28703 14.4063 7.94595C13.2114 7.85813 12.2173 8.38618 11.8275 9.5253C10.1649 14.3832 9.19516 19.9334 10.906 25.0499C11.7734 27.6438 12.6986 29.0019 14.5499 31.1146C15.1403 31.7883 16.1531 32.5124 16.7299 33.1966C17.7384 34.3929 17.8135 35.538 17.0208 36.668C16.2146 37.8176 14.8856 38.2751 13.5434 37.842C12.6315 37.5476 11.8558 37.0329 11.1785 36.3504C5.69878 30.8294 3.38571 24.2168 4.13842 16.4648C4.40783 13.6897 4.96336 10.9868 5.64524 8.30516C6.78237 3.83426 9.37505 1.67162 13.8706 2.04159C21.6492 2.68126 28.459 5.77537 33.2727 11.9942C39.4835 20.0181 34.4296 31.0829 24.7354 32.9121C17.0899 34.3546 13.5236 28.8953 12.0071 24.4293C11.6898 23.4944 11.1847 21.0068 11.3 20.1357Z" fill="#DA2B42"/>
<path d="M51.9856 6.42H56.3356V23.22H67.4356V27H51.9856V6.42ZM77.4654 27.36C74.7654 27.36 72.7554 26.69 71.4354 25.35C70.1154 24.01 69.4554 21.93 69.4554 19.11C69.4554 16.29 70.1154 14.21 71.4354 12.87C72.7554 11.53 74.7654 10.86 77.4654 10.86C80.1654 10.86 82.1754 11.53 83.4954 12.87C84.8354 14.21 85.5054 16.29 85.5054 19.11C85.5054 21.93 84.8354 24.01 83.4954 25.35C82.1754 26.69 80.1654 27.36 77.4654 27.36ZM77.4654 24C78.8054 24 79.7754 23.62 80.3754 22.86C80.9754 22.08 81.2754 20.91 81.2754 19.35V18.87C81.2754 17.31 80.9754 16.15 80.3754 15.39C79.7754 14.61 78.8054 14.22 77.4654 14.22C76.1254 14.22 75.1554 14.61 74.5554 15.39C73.9754 16.15 73.6854 17.31 73.6854 18.87V19.35C73.6854 20.91 73.9754 22.08 74.5554 22.86C75.1554 23.62 76.1254 24 77.4654 24ZM93.9153 27.36C92.2953 27.36 91.0153 26.92 90.0753 26.04C89.1553 25.16 88.6953 23.75 88.6953 21.81V11.22H92.8053V20.94C92.8053 21.92 93.0353 22.63 93.4953 23.07C93.9553 23.51 94.6353 23.73 95.5353 23.73C96.4553 23.73 97.2153 23.41 97.8153 22.77C98.4353 22.11 98.7453 21.3 98.7453 20.34V11.22H102.855V27H99.3453L99.0453 24.93H98.8353C97.5553 26.55 95.9153 27.36 93.9153 27.36ZM107.125 5.31H111.235V27H107.125V5.31ZM122.495 27.36C119.795 27.36 117.785 26.69 116.465 25.35C115.145 24.01 114.485 21.93 114.485 19.11C114.485 16.29 115.145 14.21 116.465 12.87C117.785 11.53 119.795 10.86 122.495 10.86C125.195 10.86 127.205 11.53 128.525 12.87C129.865 14.21 130.535 16.29 130.535 19.11C130.535 21.93 129.865 24.01 128.525 25.35C127.205 26.69 125.195 27.36 122.495 27.36ZM122.495 24C123.835 24 124.805 23.62 125.405 22.86C126.005 22.08 126.305 20.91 126.305 19.35V18.87C126.305 17.31 126.005 16.15 125.405 15.39C124.805 14.61 123.835 14.22 122.495 14.22C121.155 14.22 120.185 14.61 119.585 15.39C119.005 16.15 118.715 17.31 118.715 18.87V19.35C118.715 20.91 119.005 22.08 119.585 22.86C120.185 23.62 121.155 24 122.495 24ZM133.815 11.22H137.325L137.595 13.29H137.805C138.305 12.49 138.975 11.89 139.815 11.49C140.655 11.07 141.585 10.86 142.605 10.86C144.605 10.86 146.155 11.55 147.255 12.93C148.355 14.29 148.905 16.36 148.905 19.14C148.905 21.86 148.345 23.91 147.225 25.29C146.125 26.67 144.655 27.36 142.815 27.36C141.755 27.36 140.815 27.17 139.995 26.79C139.195 26.41 138.565 25.87 138.105 25.17H137.925V32.19H133.815V11.22ZM141.285 23.79C142.505 23.79 143.375 23.43 143.895 22.71C144.415 21.97 144.675 20.86 144.675 19.38V18.84C144.675 17.36 144.415 16.26 143.895 15.54C143.375 14.8 142.505 14.43 141.285 14.43C139.045 14.43 137.925 15.9 137.925 18.84V19.32C137.925 22.3 139.045 23.79 141.285 23.79Z" fill="black"/>
</svg>
